<?xml version="1.0" encoding="UTF-8"?>
<svg version="1.1" xmlns="http://www.w3.org/2000/svg" width="1024" height="1024">
<path d="M0 0 C337.92 0 675.84 0 1024 0 C1024 337.92 1024 675.84 1024 1024 C686.08 1024 348.16 1024 0 1024 C0 686.08 0 348.16 0 0 Z " fill="#233DFE" transform="translate(0,0)"/>
<path d="M0 0 C3.8063457 0.67170806 7.35206816 1.72746564 11 3 C11 3.66 11 4.32 11 5 C11.7425 5.268125 12.485 5.53625 13.25 5.8125 C16 7 16 7 17.75 8.5 C20.10613848 10.07075898 21.56797895 10.41274386 24.3125 10.9375 C30.32254562 12.12369322 35.37888312 14.93341714 40 19 C40 19.66 40 20.32 40 21 C39.34 21.33 38.68 21.66 38 22 C38 22.99 38 23.98 38 25 C38 25.33 38 25.66 38 26 C44.85589228 26.37932191 49.6801413 25.66099314 56 23 C56.99 23 57.98 23 59 23 C59 21.02 59 19.04 59 17 C61.67311545 17.30261684 64.33418357 17.64122032 67 18 C67.93714844 18.11085938 68.87429688 18.22171875 69.83984375 18.3359375 C77.46418773 19.42074349 77.46418773 19.42074349 80.3125 22.5 C80.869375 23.325 81.42625 24.15 82 25 C87.08429852 27.60126901 91.56388293 26.89393925 97 26 C97 25.34 97 24.68 97 24 C101.26672384 24.47408043 103.2455048 26.88307122 106 30 C106.350625 30.721875 106.70125 31.44375 107.0625 32.1875 C107.8394607 34.13860641 107.8394607 34.13860641 109.734375 34.8203125 C112.68772334 36.35809043 114.76571892 38.40550426 117.1875 40.6875 C121.42300399 44.62128126 125.74758329 48.22240744 130.41796875 51.625 C130.94003906 52.07875 131.46210937 52.5325 132 53 C132 53.66 132 54.32 132 55 C127.25 54.25 127.25 54.25 125 52 C123.01178687 51.60235737 121.01055661 51.26224651 119 51 C119.33 52.65 119.66 54.3 120 56 C120.9075 56.2475 121.815 56.495 122.75 56.75 C126.10351489 58.03981342 127.67708236 59.31971042 130 62 C130 60.02 130 58.04 130 56 C131.32 56 132.64 56 134 56 C137.82653629 63.20726253 140.89091929 70.12237404 143 78 C143.65629516 80.00342734 144.31760646 82.00531118 145 84 C144.34 84 143.68 84 143 84 C143.33 84.66 143.66 85.32 144 86 C144.99 86 145.98 86 147 86 C148.17578125 87.36328125 148.17578125 87.36328125 149.3125 89.3125 C149.95058594 90.39724609 149.95058594 90.39724609 150.6015625 91.50390625 C153.83887587 97.28223933 157.07058372 103.05786651 160 109 C159.01 109 158.02 109 157 109 C155.17578125 107.03125 155.17578125 107.03125 153.3125 104.5 C152.37857422 103.24703125 152.37857422 103.24703125 151.42578125 101.96875 C150.95527344 101.3190625 150.48476563 100.669375 150 100 C149.01 100.33 148.02 100.66 147 101 C147.71563266 103.0162233 147.71563266 103.0162233 149 105 C151.05000871 105.80528889 151.05000871 105.80528889 153 106 C153.33 107.98 153.66 109.96 154 112 C153.01 112.33 152.02 112.66 151 113 C151.78130071 115.49552484 151.78130071 115.49552484 153 118 C153.99 118.33 154.98 118.66 156 119 C156 118.01 156 117.02 156 116 C157.32 116 158.64 116 160 116 C159.67 114.35 159.34 112.7 159 111 C159.99 111 160.98 111 162 111 C162.94401042 112.7578125 163.88802083 114.515625 164.83203125 116.2734375 C166.04763493 118.30502365 166.04763493 118.30502365 169 120 C169 120.99 169 121.98 169 123 C169.99 123.33 170.98 123.66 172 124 C172.433125 124.804375 172.86625 125.60875 173.3125 126.4375 C174.776634 129.28242465 174.776634 129.28242465 177.86328125 129.75 C181.95049024 131.37877569 183.04130397 133.79849385 184.875 137.5625 C187.82487398 143.19855588 191.05292281 147.7464518 195.53125 152.328125 C197 154 197 154 197 156 C196.34 156.33 195.68 156.66 195 157 C195.66 157.99 196.32 158.98 197 160 C197.33 159.01 197.66 158.02 198 157 C198.32613281 157.53109375 198.65226562 158.0621875 198.98828125 158.609375 C199.42527344 159.31578125 199.86226562 160.0221875 200.3125 160.75 C200.76625 161.48605469 201.22 162.22210938 201.6875 162.98046875 C202.98438523 165.08217001 202.98438523 165.08217001 204.8125 167.0625 C206.6057937 169.98840025 206.19295326 172.65547691 206 176 C204.68 176 203.36 176 202 176 C202 176.66 202 177.32 202 178 C202.99 177.67 203.98 177.34 205 177 C208.31558515 181.38512875 209.54996653 184.37458159 210 190 C209.34 190.33 208.68 190.66 208 191 C207.01 190.34 206.02 189.68 205 189 C205 187.68 205 186.36 205 185 C203.68 184.67 202.36 184.34 201 184 C201.495 185.0725 201.99 186.145 202.5 187.25 C203.88653911 190.25416808 204 191.45934895 204 195 C202.02 195 200.04 195 198 195 C198 194.01 198 193.02 198 192 C197.34 192 196.68 192 196 192 C196 191.34 196 190.68 196 190 C194.5459375 191.175625 194.5459375 191.175625 193.0625 192.375 C192.51722656 192.81585938 191.97195313 193.25671875 191.41015625 193.7109375 C189.86733563 194.9666391 189.86733563 194.9666391 189 197 C189.53625 196.649375 190.0725 196.29875 190.625 195.9375 C193.84367331 194.66697106 195.70954769 195.01986527 199 196 C201.50963523 198.50963523 202 199.40643594 202 203 C206.62 203.66 211.24 204.32 216 205 C215.938125 203.081875 215.938125 203.081875 215.875 201.125 C215.8046875 198.9453125 215.8046875 198.9453125 216 197 C216.66 196.34 217.32 195.68 218 195 C218.99 195 219.98 195 221 195 C221 194.34 221 193.68 221 193 C221.99 193 222.98 193 224 193 C224 193.66 224 194.32 224 195 C225.65 195.66 227.3 196.32 229 197 C228.9071875 198.0209375 228.9071875 198.0209375 228.8125 199.0625 C229.00967046 202.15150391 229.91452579 204.31298727 231.19921875 207.1015625 C233.1024192 211.61354014 234 216.09624517 234 221 C233.34 221 232.68 221 232 221 C231.34 218.69 230.68 216.38 230 214 C229.01 214 228.02 214 227 214 C227.680625 215.0828125 227.680625 215.0828125 228.375 216.1875 C229.85494358 218.74894081 230.97217539 221.23277989 232 224 C233.485 223.01 233.485 223.01 235 222 C235.23783203 223.47146484 235.23783203 223.47146484 235.48046875 224.97265625 C236.69737665 232.1240005 238.15306303 238.92044746 240.625 245.75 C242.91063302 252.20880082 243.86001046 258.16596498 244 265 C244.99 265.33 245.98 265.66 247 266 C247.80859375 268.51171875 247.80859375 268.51171875 248.4375 271.6875 C250.29229264 279.75680407 253.57470417 284.03499867 260 289 C260.66 288.34 261.32 287.68 262 287 C262.99 287 263.98 287 265 287 C264.67 287.680625 264.34 288.36125 264 289.0625 C262.80194204 292.06462061 262.80194204 292.06462061 263 295.6875 C263 296.780625 263 297.87375 263 299 C262.34 299.66 261.68 300.32 261 301 C262.375 299.5 262.375 299.5 264 298 C264.66 298 265.32 298 266 298 C266.33 298.66 266.66 299.32 267 300 C267.99 300.66 268.98 301.32 270 302 C269.67 302.33 269.34 302.66 269 303 C269.15449757 308.53814367 270.32329318 313.74631862 272 319 C273.32 318.67 274.64 318.34 276 318 C276.474375 319.03125 276.94875 320.0625 277.4375 321.125 C279.74571273 325.22021614 282.79962922 327.17717695 286.78125 329.54296875 C292.69078507 333.42370217 295.62669133 338.97146321 299 345 C299.52078125 345.91007812 300.0415625 346.82015625 300.578125 347.7578125 C306.30866861 358.37957768 309.1415839 369.98217459 310 382 C307.125 382.125 307.125 382.125 304 382 C303.34 381.34 302.68 380.68 302 380 C302 378.68 302 377.36 302 376 C301.01 376 300.02 376 299 376 C299.350625 376.556875 299.70125 377.11375 300.0625 377.6875 C301.21845993 380.53886783 300.80967438 382.08517222 300 385 C301.65 384.34 303.3 383.68 305 383 C305.33 383.66 305.66 384.32 306 385 C306.66 385 307.32 385 308 385 C308 384.34 308 383.68 308 383 C310.96704719 384.02681251 311.87500756 384.765949 313.37890625 387.58203125 C318.57060552 401.75211473 321.6413905 415.00882027 319.5 430.1875 C318.92449844 434.57569937 318.98183234 438.81197371 319.04296875 443.23046875 C319 446 319 446 318.3125 449.4375 C317.71792166 452.08507271 317.71792166 452.08507271 319.4375 454.3125 C323.27092413 460.9059895 320.57477005 468.92851356 318.87109375 475.90625 C318.12815685 478.54484204 317.27718964 481.02529424 316.25 483.5625 C314.93525147 487.17805845 315.08056689 487.58986378 316 491 C315.125 493.5 315.125 493.5 314 496 C313.65772583 497.33106622 313.32248257 498.66400079 313 500 C312.67 500.66 312.34 501.32 312 502 C312.03118944 503.41770163 312.09844543 504.83475445 312.1875 506.25 C312.26287479 510.94584913 310.87636513 513.25200908 308 517 C307.63837971 518.32594105 307.30271961 519.65938457 307 521 C306.484375 521.7425 305.96875 522.485 305.4375 523.25 C303.80524123 526.37258199 304.01087085 528.43916467 304.140625 531.890625 C303.75237081 537.71443786 299.66913741 542.57682205 296.27734375 547.08203125 C294.78959072 549.31593565 293.7379177 551.62137888 292.625 554.0625 C290.56455475 558.38024833 288.30312145 560.94229199 284.453125 563.74609375 C282.7021325 565.04084656 282.7021325 565.04084656 282 568 C278.9375 569.1875 278.9375 569.1875 276 570 C275.92652344 570.76957031 275.85304688 571.53914062 275.77734375 572.33203125 C275 575 275 575 273.00390625 576.51171875 C272.19824219 576.89972656 271.39257812 577.28773438 270.5625 577.6875 C267.90319465 578.99794421 266.10951555 579.89048445 264 582 C262.51081125 582.32506546 261.00788935 582.58974362 259.5 582.8125 C257.08913104 583.24647706 257.08913104 583.24647706 255 584 C253.66096786 586.34754398 253.66096786 586.34754398 253 589 C250.30863727 591.53757058 247.47813024 593.3125485 244.25 595.0625 C240.74671384 596.67162578 240.74671384 596.67162578 240 600 C237.68514132 601.43521238 235.40544696 602.73773576 233 604 C228.16675028 606.55681422 228.16675028 606.55681422 224 610.0625 C219.90561312 614.02893729 214.4141014 615.26898815 209 616.52734375 C205.9677384 617.24395245 202.99075221 618.12769727 200 619 C201 616 201 616 202 615 C200.68 615 199.36 615 198 615 C198.33 616.65 198.66 618.3 199 620 C197.83986202 620.78062476 196.67138097 621.54884971 195.5 622.3125 C194.8503125 622.74175781 194.200625 623.17101562 193.53125 623.61328125 C187.32282649 627.01450092 181.38796299 628.46337097 174.375 629.0625 C169.26248486 629.5218986 164.87582009 630.27701959 160 632 C159.01 632 158.02 632 157 632 C157 631.01 157 630.02 157 629 C155.68 629 154.36 629 153 629 C153.33 630.32 153.66 631.64 154 633 C151.42787755 634.69025189 149.41971997 635.92005334 146.375 636.5 C143.92688533 636.78256009 143.92688533 636.78256009 142.5 638.5625 C141 640 141 640 138.4375 640.25 C136 640 136 640 134 639 C133.67 639.66 133.34 640.32 133 641 C132.34 641 131.68 641 131 641 C130.63068359 641.8971875 130.63068359 641.8971875 130.25390625 642.8125 C126.74448502 648.93485479 117.53930981 652.90696831 111 655 C109.46245228 655.16825017 107.91959532 655.2938433 106.375 655.375 C101.21764979 655.71036372 98.4571336 658.36500743 95 662 C91 660 91 660 89.296875 658.8828125 C85.67718806 657.49157228 82.08831273 657.79225031 78.25 657.875 C77.06083984 657.88853516 77.06083984 657.88853516 75.84765625 657.90234375 C73.89830719 657.92582988 71.94911425 657.96169863 70 658 C69.34 656.35 68.68 654.7 68 653 C66.783125 653.433125 65.56625 653.86625 64.3125 654.3125 C58.54273594 655.61886167 54.50225272 653.65419387 49.22265625 651.36328125 C46.3180896 650.13456154 43.54849601 649.27688944 40.5 648.5 C36.05473834 647.23302803 33.81724373 645.66241684 31 642 C31 641.34 31 640.68 31 640 C30.34 640 29.68 640 29 640 C29 640.66 29 641.32 29 642 C17.72729301 636.94308471 7.91221668 626.22792385 3 615 C2.15087105 613.30995948 1.29622467 611.62268512 0.4375 609.9375 C-2.31044117 604.51866275 -4.1505673 599.88147187 -4.875 593.8125 C-5.62647238 588.53430117 -6.92104102 584.08662492 -9.0546875 579.21875 C-9.9162055 577.19667469 -10.55901953 575.24518082 -11.125 573.125 C-11.83692026 570.11999149 -11.83692026 570.11999149 -13.06591797 568.07470703 C-14.1575739 565.65000967 -14.05644892 564.30663443 -13.8203125 561.6796875 C-13.67302836 554.38242788 -16.40985787 547.87330545 -18.875 541.125 C-19.34121887 539.80777757 -19.80607234 538.49007104 -20.26953125 537.171875 C-22.4185539 530.9037276 -22.4185539 530.9037276 -25.08642578 524.85107422 C-26.04673937 522.90529719 -26.51668493 521.11022715 -27 519 C-27.43253776 517.64646232 -27.87988608 516.29759222 -28.33984375 514.953125 C-28.59830078 514.19 -28.85675781 513.426875 -29.12304688 512.640625 C-29.66083994 511.06206695 -30.19987812 509.48393248 -30.74023438 507.90625 C-33.30723185 500.31354283 -35.28312706 493.36612904 -35.25 485.25 C-35.25515625 483.97640625 -35.2603125 482.7028125 -35.265625 481.390625 C-35 478 -35 478 -33.97583008 476.09082031 C-30.29745599 468.20951041 -35.72895935 456.18980234 -38.0625 448.5 C-38.806781 446.01142969 -39.54783081 443.52188999 -40.28515625 441.03125 C-40.61394775 439.94392578 -40.94273926 438.85660156 -41.28149414 437.73632812 C-42 435 -42 435 -42 432 C-41.52175781 431.53078125 -41.04351562 431.0615625 -40.55078125 430.578125 C-38.61953679 428.61282837 -38.46717204 427.46139676 -38.1875 424.75 C-38.09855469 424.02296875 -38.00960938 423.2959375 -37.91796875 422.546875 C-38.00478245 419.85151617 -38.66222376 417.6074034 -39.4543457 415.04345703 C-40.54440666 410.96121533 -40.95881738 406.74625795 -41.5 402.5625 C-42.32229761 396.23261563 -43.38150554 390.17497886 -45 384 C-46.3461581 377.04045061 -47.29489168 370.05108317 -48 363 C-47.01 362.67 -46.02 362.34 -45 362 C-44.67 354.74 -44.34 347.48 -44 340 C-44.66 340 -45.32 340 -46 340 C-46.12004395 339.35788574 -46.24008789 338.71577148 -46.36376953 338.05419922 C-49.54116279 321.2226833 -53.05552361 304.47955634 -58.60546875 288.24609375 C-62.34762033 277.16300715 -64.76397065 260.43013685 -61 249 C-59.15234375 247.734375 -59.15234375 247.734375 -56.9375 246.75 C-56.20402344 246.41484375 -55.47054688 246.0796875 -54.71484375 245.734375 C-54.14894531 245.49203125 -53.58304687 245.2496875 -53 245 C-53.99 245 -54.98 245 -56 245 C-56.29629261 239.96302555 -56.0710449 237.05816648 -53 233 C-51.02 231.02 -51.02 231.02 -49 229 C-49.495 235.435 -49.495 235.435 -50 242 C-49.34 242 -48.68 242 -48 242 C-48.41491652 247.39391481 -49.26905838 249.26905838 -53 253 C-53.2502157 256.08365871 -53.2502157 256.08365871 -53 259 C-53.33 259.66 -53.66 260.32 -54 261 C-54.1229938 263.12235807 -54.17555682 265.24911463 -54.1875 267.375 C-54.20876953 269.08816406 -54.20876953 269.08816406 -54.23046875 270.8359375 C-54.00348288 273.95218424 -53.37267495 275.29822707 -52 278 C-51.90542849 280.87003985 -52.06512653 283.67278996 -52.22265625 286.5390625 C-52.14917969 287.35117187 -52.07570313 288.16328125 -52 289 C-48.55549263 291.29633824 -46.06187717 291.54016485 -42 292 C-41.505 295.96 -41.505 295.96 -41 300 C-40.80523861 297.39619004 -40.61891386 294.79224467 -40.4375 292.1875 C-40.38142578 291.44951172 -40.32535156 290.71152344 -40.26757812 289.95117188 C-40.04230276 286.63211484 -39.93744188 284.18767436 -41 281 C-43.00016466 279.79117904 -43.00016466 279.79117904 -45 279 C-45.36132166 276.0371624 -45.5307736 273.83247649 -43.88671875 271.25390625 C-43.20029297 270.38572266 -43.20029297 270.38572266 -42.5 269.5 C-40.6526462 267.10158896 -40.0228558 266.13427782 -39.5 263.0625 C-40.14157835 259.13283262 -41.52126025 255.68144583 -43 252 C-44.05827855 249.24847577 -44.31589588 247.80585685 -43.234375 245.046875 C-42.51827853 243.51848999 -41.79116566 241.99523126 -41.0546875 240.4765625 C-39.63411017 237.14083647 -39.00790412 233.82157437 -38.39453125 230.26171875 C-38 228 -38 228 -37.4765625 226.10546875 C-36.60021872 222.23375319 -36.5965402 218.24351763 -36.37890625 214.2890625 C-35.9934484 210.94312938 -35.0831971 208.17709386 -34 205 C-33.70131158 202.41766847 -33.56501184 199.86524874 -33.44140625 197.26953125 C-32.90828933 194.52846105 -32.21383282 193.66292511 -30 192 C-27.69011685 191.25613932 -25.35684056 190.57809297 -23 190 C-23.0928125 188.14375 -23.0928125 188.14375 -23.1875 186.25 C-23.32718425 183.45631509 -23.30595991 182.38500125 -21.53613281 180.15795898 C-18.89242444 176.44407813 -18.9853485 172.25395252 -18.5625 167.8125 C-18.44712891 166.90435547 -18.33175781 165.99621094 -18.21289062 165.06054688 C-17.6180936 159.08262285 -18.36423942 155.4333754 -21.08081055 150.1105957 C-22.5283512 146.78682706 -22.30611713 143.76275214 -22.125 140.1875 C-21.88801296 133.24246305 -22.55337108 126.81982207 -24 120 C-22.9275 119.7525 -21.855 119.505 -20.75 119.25 C-16.95411278 117.98470426 -15.60376183 116.8930687 -13 114 C-12.34 114 -11.68 114 -11 114 C-10.9175 113.401875 -10.835 112.80375 -10.75 112.1875 C-9.77052189 109.33068885 -8.56298332 108.53778999 -6 107 C-5.34 106.87753906 -4.68 106.75507813 -4 106.62890625 C-1.92141357 106.17176571 -1.92141357 106.17176571 -0.76953125 104.5390625 C2.11169413 98.77661174 2.76465435 93.40140162 3 87 C3.66 87 4.32 87 5 87 C5.0825 86.360625 5.165 85.72125 5.25 85.0625 C5.92536541 82.3047579 6.75700298 80.53510214 8.0625 78.0625 C10.93156324 71.91006837 10.29760483 65.63824115 10 59 C10 57 10 55 10 53 C8.35 53.33 6.7 53.66 5 54 C5 53.01 5 52.02 5 51 C3.02 50.67 1.04 50.34 -1 50 C-1 49.34 -1 48.68 -1 48 C-0.34 48 0.32 48 1 48 C0.505 43.545 0.505 43.545 0 39 C10.16215586 33.24988334 10.16215586 33.24988334 14.5625 31.9375 C17.24014157 31.22208078 17.24014157 31.22208078 18.25 28.5 C18.62125 27.2625 18.62125 27.2625 19 26 C19.66 25.34 20.32 24.68 21 24 C20.62377467 17.4271221 15.56966928 13.24562616 11 9 C8.09716933 6.96541008 5.1677083 5.13136715 2.08984375 3.375 C1.40019531 2.92125 0.71054687 2.4675 0 2 C0 1.34 0 0.68 0 0 Z " fill="#C1FE72" transform="translate(424,319)"/>
<path d="M0 0 C1.31677734 -0.02126953 1.31677734 -0.02126953 2.66015625 -0.04296875 C4.9375 0.1875 4.9375 0.1875 6.9375 2.1875 C6.984375 4.15625 6.984375 4.15625 6.6875 6.6875 C6.57664062 7.68394531 6.46578125 8.68039063 6.3515625 9.70703125 C6.21492187 10.85558594 6.07828125 12.00414062 5.9375 13.1875 C5.72476512 15.18439814 5.51204374 17.18129772 5.29956055 19.17822266 C4.10412143 30.25604058 2.69703652 41.30866988 1.29467773 52.36181641 C1.17680908 53.29429199 1.05894043 54.22676758 0.9375 55.1875 C0.76186523 56.44755859 0.58623047 57.70761719 0.40527344 59.00585938 C-0.11321783 63.17690446 -0.22393068 67.29261567 -0.23046875 71.4921875 C-0.23379715 72.2562088 -0.23712555 73.0202301 -0.24055481 73.80740356 C-0.24558242 75.41244919 -0.24796444 77.01750511 -0.24780273 78.62255859 C-0.24998814 81.04933245 -0.26818539 83.47565006 -0.28710938 85.90234375 C-0.31525053 93.93710844 -0.06598449 101.34777806 1.9375 109.1875 C4.38230079 108.99921228 4.38230079 108.99921228 6.9375 108.1875 C8.18437417 106.4091326 8.18437417 106.4091326 8.9375 104.1875 C9.76727675 102.65881102 10.60235842 101.13299509 11.44140625 99.609375 C22.13079633 79.91496223 29.43317253 59.56688484 35.84448242 38.15771484 C41.57337851 19.09691433 41.57337851 19.09691433 45.9375 16.1875 C50.77199295 15.65033412 53.80024808 16.68590582 57.9375 19.1875 C59.62794436 22.56838871 59.12208153 26.40490751 59.140625 30.125 C59.14759399 31.05195679 59.15456299 31.97891357 59.16174316 32.93395996 C59.17943321 36.01851795 59.1854941 39.10289296 59.1875 42.1875 C59.18850708 43.24638428 59.18951416 44.30526855 59.19055176 45.39624023 C59.17985505 62.19007091 58.65936853 78.92260658 57.6875 95.6875 C57.60562439 97.20029541 57.60562439 97.20029541 57.52209473 98.74365234 C56.47058872 117.70330524 54.53404744 137.09318328 48.6875 155.25 C48.39230469 156.1891626 48.09710937 157.1283252 47.79296875 158.09594727 C43.02160269 172.65834615 36.32755912 186.28304256 22.46484375 193.93359375 C10.8576574 199.6923369 -1.60754196 199.4839009 -14.0625 196.1875 C-19.64206471 194.07880934 -25.29085177 191.73079645 -28.0625 186.1875 C-28.65235301 183.04925294 -28.71807027 180.31841316 -28.0625 177.1875 C-25.875 174.0625 -25.875 174.0625 -23.0625 172.1875 C-18.38807117 172.47655479 -14.61955654 174.87482608 -10.625 177.125 C-2.23619535 181.82845216 4.67744197 184.57862401 14.3125 182.4375 C17.439656 180.9483781 17.56882966 180.25374596 18.9375 177.1875 C19.36546875 176.37539063 19.7934375 175.56328125 20.234375 174.7265625 C27.72072581 159.71361169 31.45838662 142.70397719 33.9375 126.1875 C34.04046387 125.51879883 34.14342773 124.85009766 34.24951172 124.16113281 C36.59936483 108.26528602 36.13737909 92.21011501 35.9375 76.1875 C35.70675781 76.75557373 35.47601562 77.32364746 35.23828125 77.90893555 C19.43048563 116.54196967 19.43048563 116.54196967 5.140625 122.58984375 C-0.00331134 123.98527329 -5.27586635 124.54996848 -10.1796875 122.15234375 C-18.64072875 115.63407377 -20.63921115 104.20585367 -22.0625 94.1875 C-22.58752186 88.38653848 -22.5458595 82.56937258 -22.5 76.75 C-22.49643494 75.55435928 -22.49643494 75.55435928 -22.49279785 74.33456421 C-22.41753336 58.04607309 -20.79389825 42.25186597 -18.0625 26.1875 C-17.90233398 25.21087402 -17.74216797 24.23424805 -17.57714844 23.22802734 C-17.15006409 20.70587214 -16.68389224 18.19683186 -16.1875 15.6875 C-16.0627832 15.00598877 -15.93806641 14.32447754 -15.80957031 13.62231445 C-14.64259104 8.41697271 -11.99148959 4.69163234 -8.0625 1.1875 C-5.12020079 0.2067336 -3.0716216 0.02261872 0 0 Z " fill="#FBFBFF" transform="translate(883.0625,124.8125)"/>
<path d="M0 0 C5.08844009 0.53562527 9.53375465 2.18391457 13.5625 5.375 C17.7708499 11.1223737 18.16198954 16.76392535 18 23.6875 C17.9882373 24.71673584 17.97647461 25.74597168 17.96435547 26.80639648 C17.74311059 37.37122634 16.74678889 47.87020776 15.77783203 58.38598633 C14.16484271 76.01991843 13.20602323 93.68032003 12.5625 111.375 C12.52482513 112.40995605 12.52482513 112.40995605 12.48638916 113.46582031 C11.99884544 127.4934537 11.96050063 140.03105001 16.5625 153.375 C17.2734375 156.1484375 17.2734375 156.1484375 17.5625 158.375 C16.04906345 160.3929154 14.81310133 161.24969934 12.5625 162.375 C6.95522183 162.74881854 3.39477462 162.55990827 -1.4375 159.375 C-10.32292731 150.24275527 -8.57558533 136.10962573 -8.5 124.3125 C-8.49497314 122.95638187 -8.49041234 121.60026192 -8.48632812 120.24414062 C-8.47462079 116.95438006 -8.45822211 113.66471406 -8.4375 110.375 C-9.0975 110.375 -9.7575 110.375 -10.4375 110.375 C-10.685 111.2103125 -10.9325 112.045625 -11.1875 112.90625 C-12.59710193 116.81789535 -14.38887384 120.26837575 -16.4375 123.875 C-16.83122803 124.56843506 -17.22495605 125.26187012 -17.63061523 125.97631836 C-32.70943902 152.04745927 -32.70943902 152.04745927 -45.4375 156.375 C-51.63088671 157.30610037 -56.48532009 156.74695097 -61.62109375 153.04296875 C-69.13454325 146.14352157 -72.17903692 137.19065714 -72.71875 127.19921875 C-73.4562282 103.46115736 -65.58588502 80.05093495 -49.4375 62.375 C-43.19073695 55.8069014 -35.19715754 50.30660729 -25.875 49.8125 C-20.06079334 50.15883361 -13.59239792 52.22010208 -9.4375 56.375 C-9.09064891 59.08043848 -8.92995047 60.68018219 -10.5703125 62.92578125 C-13.10145906 64.89033224 -15.52376186 65.35423507 -18.625 66.125 C-28.92160121 69.20713118 -33.57735179 74.67384336 -38.64306641 83.92089844 C-39.59549507 85.72913944 -40.52332197 87.54715638 -41.4375 89.375 C-41.911875 90.32246094 -42.38625 91.26992187 -42.875 92.24609375 C-49.37033048 106.55611871 -53.14995475 122.65646796 -51.4375 138.375 C-50.53295133 140.746701 -50.53295133 140.746701 -49.4375 142.375 C-45.85052423 142.57427643 -43.43654936 142.4433099 -40.4375 140.375 C-39.75295806 139.0507551 -39.09029067 137.71518154 -38.4375 136.375 C-37.28179775 134.51397946 -36.11346234 132.66078507 -34.9375 130.8125 C-30.53642695 123.77528235 -26.71114893 116.4655629 -22.8984375 109.09765625 C-21.35941068 106.12385149 -19.78917713 103.17372138 -18.1640625 100.24609375 C-4.1075928 74.89064362 -4.38885729 46.93341997 -3.88525391 18.62573242 C-3.83380849 15.80638218 -3.77657021 12.98719432 -3.71875 10.16796875 C-3.70517456 9.29835007 -3.69159912 8.42873138 -3.6776123 7.53276062 C-3.53074567 0.54319164 -3.53074567 0.54319164 0 0 Z " fill="#FBFCFF" transform="translate(501.4375,87.625)"/>
<path d="M0 0 C5.28923987 1.76307996 7.80008936 4.61155112 11 9 C12.87431607 14.62294822 12.29079476 20.73823476 12.3125 26.625 C12.31611542 27.37719818 12.31973083 28.12939636 12.32345581 28.90438843 C12.35458084 45.39442657 10.96574929 61.72242873 9.49780273 78.13549805 C8.32666498 91.31674466 7.49461661 104.41514074 7.32836914 117.6496582 C7.3102417 118.74366943 7.29211426 119.83768066 7.2734375 120.96484375 C7.26747559 121.8993335 7.26151367 122.83382324 7.25537109 123.79663086 C7 126 7 126 5 128 C0.09411326 128.47959789 -4.02478094 127.44532394 -7.875 124.375 C-12.37462774 119.95889203 -14.13993488 115.4573659 -14.3125 109.1875 C-14.14503501 104.33707351 -13.64649288 99.54743156 -13.08203125 94.73046875 C-12.03652409 85.53988217 -11.14187622 76.3429305 -10.375 67.125 C-10.27644714 65.94457123 -10.27644714 65.94457123 -10.17590332 64.74029541 C-7.19322472 40.54158105 -7.19322472 40.54158105 -10 17 C-13.25132161 17.72136722 -13.25132161 17.72136722 -14.69140625 20.83203125 C-15.33045925 22.15152714 -15.95270117 23.47923201 -16.5625 24.8125 C-16.904021 25.55024658 -17.24554199 26.28799316 -17.59741211 27.0480957 C-26.76079989 47.46203037 -33.70569545 69.33932562 -39.64002991 90.90480042 C-40.41484871 93.720416 -41.20132223 96.53275254 -41.98629761 99.34555054 C-42.54866566 101.3872733 -43.08930503 103.43391713 -43.62915039 105.48168945 C-45.63234066 112.69842297 -47.30795608 117.97586214 -53 123 C-57.21894569 124.16594973 -60.27179396 123.89507445 -64.1796875 121.87109375 C-70.39962839 117.18853448 -73.34032393 110.46354598 -75 103 C-75.84657309 96.34836762 -75.61865504 89.62666899 -75.5 82.9375 C-75.48235633 81.02157005 -75.46519398 79.10563561 -75.44848633 77.18969727 C-75.27331478 62.91974932 -74.59803865 48.67785618 -73.6875 34.4375 C-73.62900879 33.47472137 -73.57051758 32.51194275 -73.51025391 31.51998901 C-73.33985218 28.80222745 -73.14874779 26.08685498 -72.94921875 23.37109375 C-72.89904099 22.56377808 -72.84886322 21.7564624 -72.79716492 20.92468262 C-72.36211671 15.53865754 -72.36211671 15.53865754 -70.63989258 12.97680664 C-69 12 -69 12 -65.8125 12 C-59.5408116 13.64503302 -54.17282141 16.99453949 -50 22 C-48.65440505 30.22965303 -50.46671044 38.71927366 -52 46.8125 C-54.67691704 62.20132928 -54.3911637 77.4407116 -54 93 C-51.25626119 90.25626119 -50.42199658 87.03284704 -49.1875 83.4375 C-48.92251709 82.67735596 -48.65753418 81.91721191 -48.38452148 81.1340332 C-46.62793953 76.02440755 -45.04783585 70.88155497 -43.5625 65.6875 C-39.49302599 51.60637086 -34.73379735 38.06909893 -28.4375 24.8125 C-27.76726807 23.39686768 -27.76726807 23.39686768 -27.08349609 21.95263672 C-15.38363789 -2.06645882 -15.38363789 -2.06645882 0 0 Z " fill="#FBFCFF" transform="translate(677,124)"/>
<path d="M0 0 C5.01791684 2.41935276 8.49958655 5.9991731 11 11 C11.09928266 12.38531202 11.13828366 13.77521487 11.14526367 15.1640625 C11.15164352 16.02676758 11.15802338 16.88947266 11.16459656 17.77832031 C11.16570938 18.71772461 11.1668222 19.65712891 11.16796875 20.625 C11.17296135 22.08824707 11.17296135 22.08824707 11.17805481 23.58105469 C11.18313061 25.65917489 11.18546294 27.73730329 11.18530273 29.81542969 C11.18745294 32.93178732 11.20549863 36.04776933 11.22460938 39.1640625 C11.25867558 51.26603491 10.61100114 63.00967087 9 75 C6.9697478 92.30217838 6.41597596 109.59833904 6 127 C3.00818583 128.49590709 1.3583794 128.42743011 -2 128 C-7.96528202 125.05807764 -11.40987538 122.21784435 -14 116 C-15.32865171 103.41441811 -13.39974005 90.28962902 -12.28991699 77.74209595 C-10.47953415 57.10658999 -9.38228326 36.71014159 -10 16 C-14.65721888 17.98930986 -15.91568522 21.09391168 -17.875 25.5625 C-18.2472168 26.39950439 -18.61943359 27.23650879 -19.00292969 28.09887695 C-23.27777435 38.09768061 -26.74195816 48.40101006 -30.25 58.6875 C-30.69687164 59.99667892 -30.69687164 59.99667892 -31.152771 61.33230591 C-35.0552394 72.81074732 -38.66612976 84.3443585 -42 96 C-43.03533528 99.58521334 -44.07742508 103.16834719 -45.125 106.75 C-45.48271484 108.00296875 -45.48271484 108.00296875 -45.84765625 109.28125 C-48.88433991 119.58955994 -48.88433991 119.58955994 -54 123 C-57.82499256 123.77092873 -61.42069863 123.76771594 -64.96875 122.04296875 C-71.87914941 116.78439727 -74.8657367 108.34962564 -76 100 C-76.10324449 97.34115083 -76.16349111 94.70930314 -76.16796875 92.05078125 C-76.17211288 91.28887482 -76.17625702 90.52696838 -76.18052673 89.74197388 C-76.1902006 87.26543348 -76.1901808 84.78905642 -76.1875 82.3125 C-76.18756042 81.46430695 -76.18762085 80.61611389 -76.18768311 79.74221802 C-76.1735281 65.76480594 -75.60194609 51.94536012 -74.28222656 38.0234375 C-73.99383355 34.93394004 -73.73989988 31.84300478 -73.4921875 28.75 C-73.32922576 26.81240711 -73.16521903 24.87490172 -73 22.9375 C-72.9292627 22.05570068 -72.85852539 21.17390137 -72.78564453 20.26538086 C-72.23044234 14.23044234 -72.23044234 14.23044234 -70 12 C-63.36779555 12 -58.25915951 15.13495042 -53 19 C-47.89868328 26.65197509 -51.50087115 38.9063269 -52.71008301 47.5852356 C-54.75949405 62.44605439 -55.53816893 76.98301687 -55 92 C-54.34 92 -53.68 92 -53 92 C-52.6282666 90.79279297 -52.2565332 89.58558594 -51.87353516 88.34179688 C-35.76216339 36.17465789 -35.76216339 36.17465789 -23.8125 13.875 C-23.43254883 13.15747559 -23.05259766 12.43995117 -22.66113281 11.70068359 C-17.19745672 2.02824759 -11.23902952 -1.82888241 0 0 Z " fill="#FCFCFF" transform="translate(407,124)"/>
<path d="M0 0 C0.375 2.1875 0.375 2.1875 0 5 C-2.49511158 7.43273379 -5.05608586 9.33770634 -7.8984375 11.33203125 C-23.48424999 22.5131576 -36.59973974 43.94199672 -40.60546875 62.859375 C-42.07603114 74.56563405 -42.31160369 88.061176 -35 98 C-32.3852733 99.12815365 -32.3852733 99.12815365 -30 99 C-13.27672313 78.93206776 -7.0176408 51.57494586 -0.8828125 26.796875 C-0.71049103 26.10213577 -0.53816956 25.40739655 -0.36062622 24.69160461 C0.53890002 21.0223267 1.32948032 17.35131989 2.03515625 13.640625 C3 10 3 10 4.62890625 8.0625 C9.42548023 5.42680682 14.40908427 3.29424338 20 4 C21.74609375 5.07421875 21.74609375 5.07421875 23 7 C23.328125 10.01953125 23.328125 10.01953125 23.25 13.8125 C23.23356445 14.8811731 23.23356445 14.8811731 23.21679688 15.97143555 C23.1413586 19.79787823 22.9767943 23.61634129 22.765625 27.4375 C22.09029761 39.68175368 21.86183707 51.90589829 21.82275391 64.16708374 C21.81598968 66.07711312 21.8058105 67.98713387 21.79199219 69.89712524 C21.25133642 89.06687174 21.25133642 89.06687174 27 107 C27.1875 109.875 27.1875 109.875 27 112 C21.99917391 114.99092469 16.64616599 114.60548697 11 114 C5.20458678 111.30927243 2.25410486 107.12605311 -0.09716797 101.26513672 C-1.11656784 97.57842662 -1.22690292 94.45525346 -1.1953125 90.6328125 C-1.1924826 89.95322479 -1.18965271 89.27363708 -1.18673706 88.57345581 C-1.17562964 86.42378392 -1.15054391 84.27454386 -1.125 82.125 C-1.11495795 80.65886023 -1.10583425 79.19271386 -1.09765625 77.7265625 C-1.07572159 74.15090369 -1.04125814 70.57549406 -1 67 C-1.26627197 67.63389648 -1.53254395 68.26779297 -1.80688477 68.92089844 C-16.36729264 103.42470983 -16.36729264 103.42470983 -28 110.9375 C-34.12035089 113.10512427 -38.13973864 112.18790137 -43.9375 109.5625 C-52.95914128 104.75246347 -58.85456435 97.73841093 -62 88 C-66.16994834 69.67157742 -63.23507984 49.66049689 -53.65234375 33.54296875 C-44.70806051 19.77765341 -20.42941644 -10.21470822 0 0 Z " fill="#FBFCFF" transform="translate(293,135)"/>
<path d="M0 0 C0.6875 3.25 0.6875 3.25 0 7 C-5.73406855 13.13615262 -13.71471196 15.32729346 -21.48632812 17.74609375 C-22.38158203 18.05417969 -23.27683594 18.36226562 -24.19921875 18.6796875 C-25.00190186 18.93476074 -25.80458496 19.18983398 -26.6315918 19.45263672 C-30.44560133 21.94446152 -32.36235634 24.75443538 -34 29 C-34.84343615 34.06099496 -35.00104686 39.10227949 -35.14453125 44.21875 C-35.20261438 45.68713417 -35.26276251 47.15543797 -35.32487488 48.62365723 C-35.4818169 52.4633576 -35.61092179 56.30349444 -35.73400879 60.14440918 C-35.86493075 64.07349339 -36.02249352 68.00150233 -36.17773438 71.9296875 C-36.47772292 79.61898974 -36.74827464 87.30895027 -37 95 C-34.41626766 94.69055299 -31.83304867 94.37756043 -29.25 94.0625 C-28.52039063 93.97548828 -27.79078125 93.88847656 -27.0390625 93.79882812 C-23.62062569 93.3792927 -20.3341474 92.8432467 -17 92 C-14.27261216 91.77872136 -11.75274615 91.86680261 -9 92 C-8.01 92.99 -8.01 92.99 -7 94 C-7.15226672 97.50213464 -7.58386057 99.46496359 -9.75 102.25 C-14.05908781 105.60151274 -18.54244359 106.38987734 -23.875 107.125 C-25.04804687 107.29257813 -26.22109375 107.46015625 -27.4296875 107.6328125 C-30.98255505 107.99820588 -34.43143331 108.0249922 -38 108 C-37.9048311 112.83427071 -37.79843142 117.66813287 -37.68261719 122.50195312 C-37.64486793 124.13860716 -37.60993288 125.77532909 -37.578125 127.41210938 C-37.50320525 148.21618579 -37.50320525 148.21618579 -32 168 C-29.17562802 167.96298724 -29.17562802 167.96298724 -26 167 C-24.32932867 165.00334402 -22.66247014 163.00348966 -21 161 C-18.3125 160.5 -18.3125 160.5 -16 161 C-14 163 -14 163 -13.625 166.1875 C-14.068647 170.69791113 -15.04411727 173.56478493 -18 177 C-24.22265725 181.19352989 -31.7437633 180.96335477 -39 180 C-47.64609315 177.01858857 -54.89863078 172.39804173 -59 164 C-63.10522552 151.68432343 -62.16144191 137.50378373 -62.16796875 124.6640625 C-62.17119919 123.13113375 -62.17456444 121.59820528 -62.17805481 120.0652771 C-62.18399051 116.87017099 -62.18590071 113.67509169 -62.18530273 110.47998047 C-62.18522186 107.26117283 -62.19211187 104.04250869 -62.20581055 100.82373047 C-62.53046102 23.32634755 -62.53046102 23.32634755 -51.625 10.125 C-42.99834606 4.36007261 -32.6658364 2.30700705 -22.6875 0.1875 C-21.66156738 -0.03164062 -20.63563477 -0.25078125 -19.57861328 -0.4765625 C-5.09355476 -3.39570317 -5.09355476 -3.39570317 0 0 Z " fill="#FCFCFF" transform="translate(591,65)"/>
<path d="M0 0 C6.32795464 0.50221862 10.5992838 2.7411862 15.02709961 7.25048828 C18.89675767 11.86231894 18.7405543 16.04304786 18.59375 21.86328125 C18.58928612 23.44350319 18.58928612 23.44350319 18.58473206 25.0556488 C18.56587359 28.57973178 18.50224156 32.10148262 18.4375 35.625 C18.4127475 38.13767745 18.38992748 40.65037458 18.36889648 43.16308594 C18.08022993 71.16145834 17.21925998 99.15677345 16.37230301 127.14275169 C16.07269285 137.07884995 15.82478109 147.01382769 15.65234375 156.953125 C15.63277115 158.03704529 15.61319855 159.12096558 15.59303284 160.23773193 C15.50587742 165.12553864 15.42857504 170.01316776 15.36743164 174.90136719 C15.33909552 176.55925152 15.31039546 178.2171297 15.28125 179.875 C15.27604843 180.61381409 15.27084686 181.35262817 15.26548767 182.11383057 C15.16463394 187.08536606 15.16463394 187.08536606 12.9375 189.3125 C6.17044681 190.39477282 1.06809901 189.5633625 -4.50390625 185.6015625 C-6.0625 184.3125 -6.0625 184.3125 -8.0625 182.3125 C-8.30541992 179.58789062 -8.30541992 179.58789062 -8.29296875 175.96875 C-8.29296371 175.28597992 -8.29295868 174.60320984 -8.29295349 173.89974976 C-8.2893395 171.53717028 -8.27000885 169.17499456 -8.25 166.8125 C-8.2416468 165.08870622 -8.233687 163.36491049 -8.22607422 161.64111328 C-8.19777447 156.44845012 -8.15020535 151.25608077 -8.09893799 146.06359863 C-8.06635183 142.7090251 -8.03633515 139.3544434 -8.00722027 135.99983883 C-7.40558481 67.14212783 -7.40558481 67.14212783 -5.28564453 34.21875 C-4.82049652 26.07611518 -4.61338174 17.92102019 -4.40429688 9.76831055 C-4.35692383 8.10989136 -4.35692383 8.10989136 -4.30859375 6.41796875 C-4.28466553 5.45012451 -4.2607373 4.48228027 -4.23608398 3.48510742 C-3.9632482 0.07024714 -3.50313863 0.35746313 0 0 Z " fill="#FBFCFF" transform="translate(92.0625,57.6875)"/>
<path d="M0 0 C4.87466941 0.04881643 7.6040575 0.97490175 11.3125 4.3125 C15.49050501 11.19979154 13.11047133 20.68902388 12.3125 28.3125 C14.58356746 27.66748084 16.85435907 27.02151747 19.125 26.375 C20.38957031 26.01535156 21.65414062 25.65570313 22.95703125 25.28515625 C25.08751982 24.66758739 27.20813892 24.01395369 29.3125 23.3125 C32.875 23.125 32.875 23.125 36.3125 23.3125 C37.3025 24.3025 37.3025 24.3025 38.3125 25.3125 C38.171875 27.3046875 38.171875 27.3046875 37.3125 29.3125 C35.640625 30.5078125 35.640625 30.5078125 33.5625 31.4375 C32.88703125 31.74945313 32.2115625 32.06140625 31.515625 32.3828125 C30.78859375 32.68960938 30.0615625 32.99640625 29.3125 33.3125 C28.21760254 33.80145752 28.21760254 33.80145752 27.10058594 34.30029297 C23.90250153 35.46134883 20.86658885 35.96141673 17.5 36.4375 C15.75783203 36.68886719 15.75783203 36.68886719 13.98046875 36.9453125 C13.10003906 37.06648438 12.21960938 37.18765625 11.3125 37.3125 C9.30355588 59.7184131 9.03058294 81.97641797 9.11688232 104.45611572 C9.12778417 108.04036402 9.12734785 111.62457453 9.12674427 115.20883656 C9.12701849 118.72227515 9.13253706 122.23569008 9.13974571 125.74912071 C9.14287379 127.3965913 9.14488563 129.04406448 9.14563942 130.69153786 C9.15486406 140.28605697 9.44615403 149.78188107 10.1973114 159.34916687 C10.25432976 160.81601677 10.25432976 160.81601677 10.3125 162.3125 C8.76219882 163.86280118 7.27573999 163.55655099 5.125 163.625 C-0.72688725 163.55069032 -3.66110224 161.11374246 -7.9375 157.3125 C-12.50793664 149.47746576 -11.98673457 139.06822939 -11.953125 130.2265625 C-11.95580887 129.10219788 -11.95849274 127.97783325 -11.96125793 126.81939697 C-11.96517102 123.19197879 -11.95260439 119.56488536 -11.9375 115.9375 C-11.9353952 114.70082581 -11.93329041 113.46415161 -11.93112183 112.19000244 C-11.89913775 96.17025475 -11.6353149 80.18409925 -10.75 64.1875 C-10.70661499 63.40240051 -10.66322998 62.61730103 -10.61853027 61.80841064 C-10.24448039 55.2576664 -9.86288487 48.77926952 -8.6875 42.3125 C-9.47253906 42.5290625 -10.25757813 42.745625 -11.06640625 42.96875 C-22.13748946 45.90292665 -22.13748946 45.90292665 -27.6875 45.3125 C-28.6775 44.6525 -29.6675 43.9925 -30.6875 43.3125 C-30.3575 41.6625 -30.0275 40.0125 -29.6875 38.3125 C-22.4275 36.6625 -15.1675 35.0125 -7.6875 33.3125 C-7.55472656 31.01410156 -7.42195312 28.71570313 -7.28515625 26.34765625 C-7.15387068 24.13022094 -7.020984 21.91288702 -6.88793945 19.69555664 C-6.79609212 18.15040808 -6.70591863 16.6051591 -6.61743164 15.05981445 C-6.49020699 12.84297826 -6.35703438 10.62656885 -6.22265625 8.41015625 C-6.16477684 7.36795677 -6.16477684 7.36795677 -6.10572815 6.30470276 C-5.75959854 0.75681677 -5.541718 0.1573881 0 0 Z " fill="#FBFBFF" transform="translate(730.6875,95.6875)"/>
<path d="M0 0 C5.69451 1.86166673 9.18412742 5.00970836 11.9375 10.3125 C13.33199224 14.29676355 13.61887354 17.2311667 13.5625 21.4375 C13.553396 22.13246582 13.54429199 22.82743164 13.53491211 23.54345703 C13.42250426 28.38188168 12.94664196 33.14063033 12.3125 37.9375 C9.78123316 57.38160283 10.18795253 77.07700405 10.29296875 96.64453125 C10.30324954 98.78377268 10.31350838 100.92301422 10.32374573 103.06225586 C10.36867444 111.93184047 10.41741102 120.80130278 10.49682617 129.6706543 C10.54527066 135.16005846 10.57430246 140.6492709 10.59057045 146.1388607 C10.60044631 148.21413609 10.61762339 150.28939049 10.64235497 152.36454201 C10.67602313 155.24433044 10.68497977 158.12321338 10.68823242 161.00317383 C10.71216064 162.27547096 10.71216064 162.27547096 10.73657227 163.57347107 C10.71600428 167.55906063 10.52532318 169.6024855 8.43354797 173.09745789 C6.25 175.0625 6.25 175.0625 2.875 175.5625 C-2.20416389 174.86192567 -6.50117486 173.16627913 -9.75 169.0625 C-14.0791504 156.07504881 -11.90794481 139.3696752 -11.875 125.875 C-11.87311676 124.71045288 -11.87123352 123.54590576 -11.86929321 122.34606934 C-11.83681484 105.23099349 -11.72082849 88.15406502 -10.75 71.0625 C-10.70145874 70.19971436 -10.65291748 69.33692871 -10.60290527 68.44799805 C-10.19011579 61.15176559 -9.75637859 53.85690258 -9.3125 46.5625 C-9.22033707 45.03586731 -9.22033707 45.03586731 -9.12631226 43.47839355 C-8.71087438 36.66975576 -8.25613224 29.86501071 -7.75 23.0625 C-7.67883972 22.09892578 -7.60767944 21.13535156 -7.53436279 20.14257812 C-7.31998476 17.3537217 -7.08413336 14.56762922 -6.83984375 11.78125 C-6.77567764 10.94299683 -6.71151154 10.10474365 -6.645401 9.24108887 C-6.10657725 3.51427754 -6.10657725 3.51427754 -4.37965393 1.32629395 C-2.75 0.0625 -2.75 0.0625 0 0 Z " fill="#FAFBFF" transform="translate(206.75,76.9375)"/>
<path d="M0 0 C2.48612217 1.86917293 4.06655746 3.46609123 5.58984375 6.1953125 C6.15956073 10.25454601 6.21381448 12.27091143 3.90234375 15.6953125 C1.58984375 17.1953125 1.58984375 17.1953125 -0.78515625 17.2578125 C-4.3356067 15.82072541 -6.54548704 13.74168513 -9.41015625 11.1953125 C-12.26340062 9.76869031 -14.24470174 9.88497382 -17.41015625 10.1953125 C-21.32538065 12.59783657 -23.29397715 14.73059609 -24.41015625 19.1953125 C-25.34797568 28.41720353 -21.87597207 36.03200921 -16.1484375 43.15234375 C-15.57480469 43.82652344 -15.00117188 44.50070313 -14.41015625 45.1953125 C-13.78496094 45.94167969 -13.15976563 46.68804687 -12.515625 47.45703125 C-8.63036539 51.93336932 -4.54489177 56.0251538 -0.13549805 59.97436523 C15.86839713 74.31853464 15.86839713 74.31853464 16.828125 84.796875 C17.08047133 95.07666762 14.59087973 101.80541408 7.578125 109.34375 C0.07043722 116.33519206 -8.44335838 120.78717241 -18.78515625 120.6953125 C-19.53394043 120.68959229 -20.28272461 120.68387207 -21.05419922 120.67797852 C-27.222644 120.47888831 -31.59499125 119.19779142 -36.41015625 115.1953125 C-37.04179687 114.68742187 -37.6734375 114.17953125 -38.32421875 113.65625 C-43.90936269 108.64150374 -47.73388488 102.2529407 -48.97265625 94.8203125 C-48.23765121 91.39028896 -47.30227266 90.17412899 -44.41015625 88.1953125 C-41.16015625 87.9453125 -41.16015625 87.9453125 -38.41015625 88.1953125 C-38.15621094 88.78699219 -37.90226563 89.37867188 -37.640625 89.98828125 C-36.58900334 92.40267854 -35.50322356 94.79943803 -34.41015625 97.1953125 C-33.99765625 98.1234375 -33.58515625 99.0515625 -33.16015625 100.0078125 C-29.96597317 104.00054136 -25.93973931 105.76235692 -20.9453125 106.6171875 C-15.42558376 106.9233666 -11.53723989 105.92366545 -7.04296875 102.67578125 C-3.33044613 99.30964232 -2.47275801 96.42648037 -2.22265625 91.5078125 C-4.37356729 80.3564873 -15.62626095 71.74950019 -23.44287109 64.36010742 C-34.59158684 53.61706661 -41.28552928 41.64158377 -41.91015625 25.9453125 C-41.5058624 16.13792614 -37.48211149 8.85217471 -30.41015625 2.1953125 C-22.17814999 -4.22565238 -9.14678211 -5.53061244 0 0 Z " fill="#FBFCFF" transform="translate(168.41015625,128.8046875)"/>
<path d="M0 0 C2.55377264 0.95057093 3.70858986 1.47977893 5.0546875 3.8828125 C5.46074219 4.99269531 5.46074219 4.99269531 5.875 6.125 C9.05409935 13.83862865 14.44744694 19.65368444 20.00390625 25.77734375 C21.26710465 27.18391888 22.50753063 28.6115802 23.71484375 30.06640625 C28.24503814 35.5132988 33.38865231 39.70248749 39 44 C45.17754088 48.82426687 51.18858701 53.82096037 57.125 58.9375 C57.80135498 59.51781982 58.47770996 60.09813965 59.17456055 60.69604492 C60.80297132 62.1080333 62.40432132 63.55112376 64 65 C64 65.33 64 65.66 64 66 C59.3579109 66.72532642 57.00793951 64.89699493 53.31640625 62.4453125 C47.66378274 58.91838046 41.79186773 55.57168402 35 56 C34.505 56.99 34.505 56.99 34 58 C31.36 57.34 28.72 56.68 26 56 C26 56.66 26 57.32 26 58 C22.74611025 56.59117301 20.81232484 54.92326856 18.4375 52.3125 C9.67094242 43.38508815 -1.87586993 38.37363874 -13 33 C-12.34 34.0725 -11.68 35.145 -11 36.25 C-9.11704193 39.30980686 -9 40.1335864 -9 44 C-9.99 44 -10.98 44 -12 44 C-13.12189076 42.84411255 -14.23931001 41.68350116 -15.33203125 40.5 C-18.17432183 37.9439354 -21.55088789 36.25765012 -24.890625 34.4296875 C-27 33 -27 33 -28 30 C-28 29.01 -28 28.02 -28 27 C-28.95502158 28.72476911 -28.95502158 28.72476911 -29 31 C-26.75041666 33.58333229 -26.75041666 33.58333229 -24 36 C-22.97186389 37.31175986 -21.95915568 38.6369893 -21 40 C-23.51004142 39.53517751 -25.05842447 38.9599375 -27.1875 37.5 C-30.0561408 35.97005824 -31.34816749 35.82862683 -34.5 35.6875 C-37.15336111 35.48407565 -38.55986435 35.35086285 -40.65625 33.6796875 C-42.38829196 31.59519515 -43.78847751 29.42304499 -45 27 C-46.27875 26.7525 -47.5575 26.505 -48.875 26.25 C-52.43207224 25.45601066 -52.78756401 25.33281638 -54.875 22.0625 C-55.431875 20.5465625 -55.431875 20.5465625 -56 19 C-56.66 18.01 -57.32 17.02 -58 16 C-59.23221253 18.95731007 -60.35087445 21.85715045 -61 25 C-59.88435062 27.58017295 -59.88435062 27.58017295 -58 29 C-56.35 28.67 -54.7 28.34 -53 28 C-52.979375 28.5775 -52.95875 29.155 -52.9375 29.75 C-51.46159385 33.29217475 -48.3565353 34.52312447 -45 36 C-42.22861403 36.77485832 -42.22861403 36.77485832 -40 37 C-39.875 39.375 -39.875 39.375 -40 42 C-40.66 42.66 -41.32 43.32 -42 44 C-46.44365348 43.7661235 -47.97014903 42.02985097 -51 39 C-53.49675668 38.01666329 -53.49675668 38.01666329 -56 38 C-56.99 38.66 -57.98 39.32 -59 40 C-59.433125 39.525625 -59.86625 39.05125 -60.3125 38.5625 C-62.02309613 36.76313043 -62.02309613 36.76313043 -65 36 C-65 34.68 -65 33.36 -65 32 C-65.99 31.67 -66.98 31.34 -68 31 C-69.125 24.375 -69.125 24.375 -68 21 C-67.835 19.80375 -67.67 18.6075 -67.5 17.375 C-67 14 -67 14 -66 13 C-65.01 13.144375 -64.02 13.28875 -63 13.4375 C-58.99379746 13.54444175 -57.28660358 11.80055412 -54.4375 9.125 C-53.38369141 8.04605469 -53.38369141 8.04605469 -52.30859375 6.9453125 C-44.40271251 0.28350394 -30.98927885 1.85886327 -21.265625 2.0625 C-19.03149542 2.26060838 -19.03149542 2.26060838 -18 1 C-16.52603261 0.79231771 -15.0450874 0.63283983 -13.5625 0.5 C-2.57241857 -0.48787249 -2.57241857 -0.48787249 0 0 Z " fill="#C2F573" transform="translate(456,277)"/>
<path d="M0 0 C6.76054174 0.39767893 10.79950173 2.56161003 15.3125 7.5625 C17.94814987 11.36954981 18.22185447 14.66178078 18.5625 19.1875 C18.68818359 20.81751953 18.68818359 20.81751953 18.81640625 22.48046875 C18.87699219 23.31191406 18.93757812 24.14335937 19 25 C20.299375 23.5459375 20.299375 23.5459375 21.625 22.0625 C25.09829909 18.59627484 28.85056208 15.86719988 32.9375 13.1875 C33.51000488 12.80279541 34.08250977 12.41809082 34.67236328 12.02172852 C40.54864534 8.27255109 46.97754415 6.23425348 54 7 C61.43643252 9.85626613 69.20395389 13.45993712 74 20 C73.62890625 22.17578125 73.62890625 22.17578125 73 24 C68.08457617 24.35005986 65.37063573 23.43251278 61.125 21 C55.9167404 18.27984461 52.82040242 16.99648234 47 18 C43.75954128 19.66030012 43.75954128 19.66030012 41 22 C40.195625 22.5775 39.39125 23.155 38.5625 23.75 C35.72555987 26.24097182 33.33994256 28.91966912 30.8984375 31.79296875 C29.60081421 33.30152257 28.2706968 34.78256692 26.9140625 36.23828125 C25.87378906 37.35783203 25.87378906 37.35783203 24.8125 38.5 C24.17957031 39.1703125 23.54664063 39.840625 22.89453125 40.53125 C17.12316691 48.05187322 16.41917776 54.09487353 16.4609375 63.34765625 C16.44914459 64.51832138 16.43735168 65.68898651 16.42520142 66.89512634 C16.39004821 70.61772078 16.38078253 74.3397534 16.375 78.0625 C16.3586245 81.78864814 16.33652043 85.51454765 16.30337524 89.24058533 C16.28384173 91.55331524 16.27439983 93.86615885 16.27645874 96.17897034 C16.23381293 102.64283459 15.93354727 108.13290547 13 114 C6.16759156 114.71920089 6.16759156 114.71920089 2.9453125 112.734375 C0.51185136 110.65432108 -1.55846298 108.88307404 -3 106 C-3.35627405 97.79231278 -2.90698608 89.54859286 -2.53125 81.34765625 C-2.09319799 70.91800393 -1.85443396 60.49554031 -1.71875 50.05859375 C-1.70920288 49.3386385 -1.69965576 48.61868324 -1.68981934 47.87691116 C-1.60213209 41.19984194 -1.52367757 34.52267104 -1.44775391 27.84545898 C-1.40529674 24.13907596 -1.35813727 20.43277642 -1.30812073 16.72648811 C-1.28167078 14.65406313 -1.26083737 12.58162893 -1.2401123 10.50914001 C-1.22339478 9.2717659 -1.20667725 8.03439178 -1.18945312 6.75952148 C-1.17692505 5.66768051 -1.16439697 4.57583954 -1.15148926 3.45091248 C-1 1 -1 1 0 0 Z " fill="#FAFBFF" transform="translate(774,129)"/>
<path d="M0 0 C1.06671952 3.20015856 0.94845472 4.88544294 0.5625 8.1875 C0.46066406 9.08855469 0.35882813 9.98960937 0.25390625 10.91796875 C0.17011719 11.60503906 0.08632813 12.29210937 0 13 C0.66 13 1.32 13 2 13 C1.58508348 18.39391481 0.73094162 20.26905838 -3 24 C-3.2502157 27.08365871 -3.2502157 27.08365871 -3 30 C-3.33 30.66 -3.66 31.32 -4 32 C-4.1229938 34.12235807 -4.17555682 36.24911463 -4.1875 38.375 C-4.20167969 39.51710938 -4.21585937 40.65921875 -4.23046875 41.8359375 C-4.00348288 44.95218424 -3.37267495 46.29822707 -2 49 C-1.90542849 51.87003985 -2.06512653 54.67278996 -2.22265625 57.5390625 C-2.14917969 58.35117187 -2.07570313 59.16328125 -2 60 C1.44450737 62.29633824 3.93812283 62.54016485 8 63 C9.82243921 71.71139831 10.15591869 79.81776547 9.6875 88.6875 C9.63916016 89.86505859 9.59082031 91.04261719 9.54101562 92.25585938 C9.14873543 100.85126457 9.14873543 100.85126457 8 102 C7.84213692 103.85174706 7.74892644 105.7090911 7.68359375 107.56640625 C7.64169922 108.69111328 7.59980469 109.81582031 7.55664062 110.97460938 C7.51732422 112.15861328 7.47800781 113.34261719 7.4375 114.5625 C7.39431641 115.75037109 7.35113281 116.93824219 7.30664062 118.16210938 C7.20016454 121.10794784 7.09815159 124.0538743 7 127 C6.67 127 6.34 127 6 127 C6 121.72 6 116.44 6 111 C5.34 111 4.68 111 4 111 C3.87995605 110.35788574 3.75991211 109.71577148 3.63623047 109.05419922 C0.45883721 92.2226833 -3.05552361 75.47955634 -8.60546875 59.24609375 C-12.34762033 48.16300715 -14.76397065 31.43013685 -11 20 C-9.15234375 18.734375 -9.15234375 18.734375 -6.9375 17.75 C-6.20402344 17.41484375 -5.47054688 17.0796875 -4.71484375 16.734375 C-4.14894531 16.49203125 -3.58304687 16.2496875 -3 16 C-3.99 16 -4.98 16 -6 16 C-6.42307306 8.80775799 -4.27762013 5.49979731 0 0 Z " fill="#C2EF74" transform="translate(374,548)"/>
<path d="M0 0 C2.55377264 0.95057093 3.70858986 1.47977893 5.0546875 3.8828125 C5.32539063 4.62273437 5.59609375 5.36265625 5.875 6.125 C9.05409935 13.83862865 14.44744694 19.65368444 20.00390625 25.77734375 C21.26710465 27.18391888 22.50753063 28.6115802 23.71484375 30.06640625 C28.23169885 35.49726026 33.37565187 39.74495996 39 44 C38.01 44.495 38.01 44.495 37 45 C37.33 45.99 37.66 46.98 38 48 C37.01 47.67 36.02 47.34 35 47 C35 46.34 35 45.68 35 45 C34.3090625 44.78085937 33.618125 44.56171875 32.90625 44.3359375 C29.20752972 42.63571931 26.53509078 40.30095011 23.5 37.625 C22.38592796 36.65826463 21.27135201 35.69210965 20.15625 34.7265625 C19.62193359 34.26048584 19.08761719 33.79440918 18.53710938 33.31420898 C17.15882424 32.1357927 15.73795983 31.00761086 14.3125 29.88671875 C12.13448788 28.10972576 10.3340168 26.31132605 8.5 24.1875 C7.89542969 23.49785156 7.29085938 22.80820312 6.66796875 22.09765625 C5.13470375 20.16940496 4.01425825 18.26493383 2.8125 16.125 C1.0587524 13.50630886 0.11999904 13.03543279 -2.9765625 12.12109375 C-5.98722108 11.61696708 -8.9575371 11.23776823 -12 11 C-12 10.34 -12 9.68 -12 9 C-13.98 9.33 -15.96 9.66 -18 10 C-18 7.03 -18 4.06 -18 1 C-15.72135417 0.77213542 -13.44270833 0.54427083 -11.1640625 0.31640625 C-3.91790215 -0.74305041 -3.91790215 -0.74305041 0 0 Z " fill="#C3F073" transform="translate(456,277)"/>
<path d="M0 0 C10.9693669 -0.54846835 21.73781557 1.9046654 31 8 C32.93759872 9.89102183 34.38854092 11.8025558 36 14 C36.99 14.66 37.98 15.32 39 16 C39 16.66 39 17.32 39 18 C38.38125 17.835 37.7625 17.67 37.125 17.5 C35.03936614 16.92365356 35.03936614 16.92365356 33 17 C35.31 18.98 37.62 20.96 40 23 C39.34 23.66 38.68 24.32 38 25 C37.34 24.67 36.68 24.34 36 24 C36 25.65 36 27.3 36 29 C34.95203782 28.15356901 33.91207308 27.29723808 32.875 26.4375 C32.29492188 25.96183594 31.71484375 25.48617188 31.1171875 24.99609375 C29.26900189 23.25361617 27.84619729 21.53891715 26.28515625 19.55078125 C22.93538865 15.58447591 19.28189042 13.75292432 14.5625 11.75 C13.83740234 11.42515625 13.11230469 11.1003125 12.36523438 10.765625 C10.25154994 9.82367758 8.12857038 8.90773583 6 8 C5.30890137 7.70287109 4.61780273 7.40574219 3.90576172 7.09960938 C2.27151273 6.39739622 0.63591062 5.69833339 -1 5 C-0.67 3.35 -0.34 1.7 0 0 Z " fill="#C1EB75" transform="translate(363,409)"/>
<path d="M0 0 C0 3.52032428 -0.70351351 4.4385343 -3 7 C-3.66 7 -4.32 7 -5 7 C-5.165 8.258125 -5.33 9.51625 -5.5 10.8125 C-5.5928125 11.52019531 -5.685625 12.22789062 -5.78125 12.95703125 C-6.17926504 16.67420745 -6.15520553 17.7671917 -4 21 C-2.35 20.67 -0.7 20.34 1 20 C1.020625 20.5775 1.04125 21.155 1.0625 21.75 C2.53840615 25.29217475 5.6434647 26.52312447 9 28 C11.77138597 28.77485832 11.77138597 28.77485832 14 29 C14.125 31.375 14.125 31.375 14 34 C13.34 34.66 12.68 35.32 12 36 C7.55634652 35.7661235 6.02985097 34.02985097 3 31 C0.50324332 30.01666329 0.50324332 30.01666329 -2 30 C-2.99 30.66 -3.98 31.32 -5 32 C-5.433125 31.525625 -5.86625 31.05125 -6.3125 30.5625 C-8.02309613 28.76313043 -8.02309613 28.76313043 -11 28 C-11 26.68 -11 25.36 -11 24 C-11.99 23.67 -12.98 23.34 -14 23 C-15.125 16.375 -15.125 16.375 -14 13 C-13.835 11.80375 -13.67 10.6075 -13.5 9.375 C-13 6 -13 6 -12 5 C-10.9275 5.0825 -9.855 5.165 -8.75 5.25 C-4.83555611 5.36320914 -4.83555611 5.36320914 -2.0625 2.5 C-1.381875 1.675 -0.70125 0.85 0 0 Z " fill="#C3E775" transform="translate(402,285)"/>
<path d="M0 0 C1.68698082 0.61344757 3.34827188 1.29713697 5 2 C5.91845703 2.38478516 5.91845703 2.38478516 6.85546875 2.77734375 C8.75 3.6875 8.75 3.6875 12 6 C12.9375 9.75 12.9375 9.75 13 13 C13.99 13 14.98 13 16 13 C16 11.68 16 10.36 16 9 C16.66 9 17.32 9 18 9 C20.97735082 12.55477643 22.89865026 15.86488289 23.3125 20.5 C23.209375 21.325 23.10625 22.15 23 23 C21.02 23.33 19.04 23.66 17 24 C16.938125 22.741875 16.87625 21.48375 16.8125 20.1875 C16.60557227 17.99218049 16.60557227 17.99218049 16 16 C13.66209929 14.04664818 13.66209929 14.04664818 11 13 C10.34 12.34 9.68 11.68 9 11 C9 10.01 9 9.02 9 8 C6.03 7.505 6.03 7.505 3 7 C3 7.66 3 8.32 3 9 C0.03 8.505 0.03 8.505 -3 8 C-2.37240135 5.07120629 -1.41377341 2.63904371 0 0 Z " fill="#3148F3" transform="translate(695,648)"/>
<path d="M0 0 C4.50586178 2.19204087 6.13081444 4.37622519 8 9 C8 9.66 8 10.32 8 11 C9.32 10.67 10.64 10.34 12 10 C13.51359836 13.50417099 14.4665349 16.80506823 15.125 20.5625 C15.37636719 21.95662109 15.37636719 21.95662109 15.6328125 23.37890625 C16 26 16 26 16 30 C13.125 30.125 13.125 30.125 10 30 C9.34 29.34 8.68 28.68 8 28 C8 25.66666667 8 23.33333333 8 21 C7.34 20.34 6.68 19.68 6 19 C5.01 19 4.02 19 3 19 C3.66 17.02 4.32 15.04 5 13 C5.66 13 6.32 13 7 13 C6.40606618 11.70359622 5.79942011 10.41301161 5.1875 9.125 C4.85105469 8.40570312 4.51460937 7.68640625 4.16796875 6.9453125 C3.00532903 4.69457194 3.00532903 4.69457194 0 3 C0 2.01 0 1.02 0 0 Z " fill="#C2E376" transform="translate(718,671)"/>
<path d="M0 0 C3.58220457 0.49752841 6.67924789 1.60178858 10 3 C10.99 3.33 11.98 3.66 13 4 C13.9765625 10.0546875 13.9765625 10.0546875 14 12 C12 14 12 14 9.8125 14.4375 C5.69229761 13.79657963 2.77389018 12.13181149 0 9 C-0.96716888 6.14147863 -1 4.08115526 -1 1 C-0.67 0.67 -0.34 0.34 0 0 Z " fill="#C4EE73" transform="translate(354,330)"/>
<path d="M0 0 C0.33 0 0.66 0 1 0 C1.19588601 3.6454342 1.38030536 7.2913579 1.5625 10.9375 C1.61857422 11.97841797 1.67464844 13.01933594 1.73242188 14.09179688 C1.78076172 15.08115234 1.82910156 16.07050781 1.87890625 17.08984375 C1.9260376 18.00628662 1.97316895 18.92272949 2.02172852 19.86694336 C2 22 2 22 1 23 C0.84213692 24.85174706 0.74892644 26.7090911 0.68359375 28.56640625 C0.64169922 29.69111328 0.59980469 30.81582031 0.55664062 31.97460938 C0.51732422 33.15861328 0.47800781 34.34261719 0.4375 35.5625 C0.37272461 37.34430664 0.37272461 37.34430664 0.30664062 39.16210938 C0.20016454 42.10794784 0.09815159 45.0538743 0 48 C-0.33 48 -0.66 48 -1 48 C-1 42.72 -1 37.44 -1 32 C-1.66 32 -2.32 32 -3 32 C-3.33848652 30.10507994 -3.67056911 28.20901534 -4 26.3125 C-4.185625 25.25675781 -4.37125 24.20101562 -4.5625 23.11328125 C-4.95068074 20.35095938 -5.08259976 17.78257957 -5 15 C-4.34 15 -3.68 15 -3 15 C-3 12.69 -3 10.38 -3 8 C-2.34 7.67 -1.68 7.34 -1 7 C-0.59270772 4.67843403 -0.25561323 2.3431213 0 0 Z " fill="#C9D675" transform="translate(381,627)"/>
<path d="M0 0 C0.33 0.66 0.66 1.32 1 2 C1.57363281 2.27457031 2.14726563 2.54914063 2.73828125 2.83203125 C5.69586705 4.35935103 7.76663762 6.40636994 10.1875 8.6875 C14.42300399 12.62128126 18.74758329 16.22240744 23.41796875 19.625 C23.94003906 20.07875 24.46210937 20.5325 25 21 C25 21.66 25 22.32 25 23 C20.25 22.25 20.25 22.25 18 20 C16.01178687 19.60235737 14.01055661 19.26224651 12 19 C12.66 18.67 13.32 18.34 14 18 C13.2575 17.2575 12.515 16.515 11.75 15.75 C10.10403482 14.10403482 8.47328538 12.44230217 6.875 10.75 C5.02022825 8.77556277 5.02022825 8.77556277 2 8 C1.67 7.01 1.34 6.02 1 5 C-1.00016466 3.79117904 -1.00016466 3.79117904 -3 3 C-2.67 2.34 -2.34 1.68 -2 1 C-1.34 1.33 -0.68 1.66 0 2 C0 1.34 0 0.68 0 0 Z " fill="#B9BC84" transform="translate(531,351)"/>
<path d="M0 0 C3.26232083 3.15708468 6.26858044 6.44976142 9.25 9.875 C13.45896909 14.57015364 17.89340999 18.32886501 23 22 C23.99386719 22.72832031 24.98773438 23.45664062 26.01171875 24.20703125 C28.66714075 26.14844733 31.33005171 28.07863534 34 30 C33.01 30.33 32.02 30.66 31 31 C28.47666663 29.58717278 26.17730511 28.14474207 23.8125 26.5 C22.80473511 25.81031128 22.80473511 25.81031128 21.77661133 25.10668945 C8.32467207 15.78029355 8.32467207 15.78029355 6 9 C4.03327085 7.8499169 4.03327085 7.8499169 2 7 C0 4 0 4 0 0 Z " fill="#3249F2" transform="translate(457,292)"/>
<path d="M0 0 C3.45992428 1.42291258 5.02648569 3.05963093 7.125 6.125 C8.55696719 8.27359999 8.55696719 8.27359999 10 10 C10.66 10 11.32 10 12 10 C12 12.31 12 14.62 12 17 C10.68 17 9.36 17 8 17 C8 17.99 8 18.98 8 20 C6.68 19.67 5.36 19.34 4 19 C3.375 16.625 3.375 16.625 3 14 C3.66 13.34 4.32 12.68 5 12 C5.16687448 9.41645782 5.16687448 9.41645782 5 7 C4.21625 6.9175 3.4325 6.835 2.625 6.75 C0 6 0 6 -1.3125 3.9375 C-1.539375 3.298125 -1.76625 2.65875 -2 2 C-1.34 1.34 -0.68 0.68 0 0 Z " fill="#2D45F6" transform="translate(572,418)"/>
<path d="M0 0 C1.06671952 3.20015856 0.94845472 4.88544294 0.5625 8.1875 C0.46066406 9.08855469 0.35882813 9.98960937 0.25390625 10.91796875 C0.12822266 11.94857422 0.12822266 11.94857422 0 13 C0.66 13 1.32 13 2 13 C1.75 16.375 1.75 16.375 1 20 C-1.0625 21.4375 -1.0625 21.4375 -3 22 C-4 17.125 -4 17.125 -4 16 C-4.66 16 -5.32 16 -6 16 C-6.42307306 8.80775799 -4.27762013 5.49979731 0 0 Z " fill="#C5D079" transform="translate(374,548)"/>
<path d="M0 0 C0.66 0 1.32 0 2 0 C2.66 0.99 3.32 1.98 4 3 C4.99 3.33 5.98 3.66 7 4 C6.67 3.01 6.34 2.02 6 1 C7.32 1.33 8.64 1.66 10 2 C10.125 7.75 10.125 7.75 9 10 C5.96663814 10.22893297 3.02534949 10.36475845 0 10 C-2.0625 8 -2.0625 8 -3 6 C-2.01 6 -1.02 6 0 6 C0 4.02 0 2.04 0 0 Z " fill="#C3E276" transform="translate(381,316)"/>
<path d="M0 0 C0.66 0 1.32 0 2 0 C4.97735082 3.55477643 6.89865026 6.86488289 7.3125 11.5 C7.1578125 12.7375 7.1578125 12.7375 7 14 C5.02 14.33 3.04 14.66 1 15 C0.87625 13.081875 0.87625 13.081875 0.75 11.125 C0.54130069 8.94666582 0.54130069 8.94666582 0 7 C-1.92064793 5.4100567 -1.92064793 5.4100567 -4 5 C-2.68 4.67 -1.36 4.34 0 4 C0 2.68 0 1.36 0 0 Z " fill="#2A43F9" transform="translate(711,657)"/>
<path d="M0 0 C0.99 0.33 1.98 0.66 3 1 C3.02721176 2.89575251 3.04649136 4.79161979 3.0625 6.6875 C3.07410156 7.74324219 3.08570313 8.79898438 3.09765625 9.88671875 C3.00865425 12.72410262 2.64939838 15.2438919 2 18 C1.67 18 1.34 18 1 18 C1 16.02 1 14.04 1 12 C0.34 12 -0.32 12 -1 12 C-1 12.66 -1 13.32 -1 14 C-1.66 14 -2.32 14 -3 14 C-3.08153933 12.41753293 -3.13943557 10.83383727 -3.1875 9.25 C-3.22230469 8.36828125 -3.25710938 7.4865625 -3.29296875 6.578125 C-2.94923684 3.55328417 -1.99772541 2.24416398 0 0 Z " fill="#C0D17C" transform="translate(740,752)"/>
<path d="M0 0 C2.56912029 0.98730656 3.75972051 1.53557919 5.046875 4.0234375 C5.27890625 4.79945313 5.5109375 5.57546875 5.75 6.375 C5.99234375 7.14585937 6.2346875 7.91671875 6.484375 8.7109375 C7 11 7 11 7 15 C5.109375 14.765625 5.109375 14.765625 3 14 C0.67232578 9.79628985 -0.46328919 4.78732164 0 0 Z " fill="#2942F9" transform="translate(385,752)"/>
<path d="M0 0 C4.38634505 1.94948669 6.26243587 4.30706931 8.21875 8.52734375 C9.70438892 13.22939094 9.83662759 18.09882763 10 23 C9.401875 22.34 8.80375 21.68 8.1875 21 C6.12498166 18.6626154 6.12498166 18.6626154 3 19 C3.66 17.02 4.32 15.04 5 13 C5.66 13 6.32 13 7 13 C6.40606618 11.70359622 5.79942011 10.41301161 5.1875 9.125 C4.85105469 8.40570312 4.51460937 7.68640625 4.16796875 6.9453125 C3.00532903 4.69457194 3.00532903 4.69457194 0 3 C0 2.01 0 1.02 0 0 Z " fill="#8496AE" transform="translate(718,671)"/>
<path d="M0 0 C0.33 0 0.66 0 1 0 C1.33 7.26 1.66 14.52 2 22 C0.02 22.99 0.02 22.99 -2 24 C-2.02684679 21.35409986 -2.04676357 18.70846904 -2.0625 16.0625 C-2.07087891 15.30775391 -2.07925781 14.55300781 -2.08789062 13.77539062 C-2.09652441 11.85005687 -2.05224333 9.92464419 -2 8 C-1.67 7.67 -1.34 7.34 -1 7 C-0.63239269 4.67182036 -0.29758419 2.3381615 0 0 Z " fill="#3148F3" transform="translate(381,627)"/>
<path d="M0 0 C0.66 1.32 1.32 2.64 2 4 C1.34 4 0.68 4 0 4 C2.07658441 13.34363291 2.07658441 13.34363291 6 22 C5.34 22 4.68 22 4 22 C3.67 21.34 3.34 20.68 3 20 C2.34 20.33 1.68 20.66 1 21 C0.32873871 18.5636811 -0.33716354 16.12611117 -1 13.6875 C-1.28617187 12.65206055 -1.28617187 12.65206055 -1.578125 11.59570312 C-2.37716184 8.64212051 -3 6.07440781 -3 3 C-1.5 1.3125 -1.5 1.3125 0 0 Z " fill="#B1B68B" transform="translate(385,748)"/>
<path d="M0 0 C0.66 0 1.32 0 2 0 C2.10957031 0.58007812 2.21914063 1.16015625 2.33203125 1.7578125 C3.3143365 6.59746277 4.54821911 10.65366116 7 15 C7.66 15 8.32 15 9 15 C9 15.66 9 16.32 9 17 C6.8125 17 6.8125 17 4 16 C0.67202775 12.31224697 -0.90389221 9.0091318 -1.375 4.0625 C-1 1 -1 1 0 0 Z " fill="#2F47F4" transform="translate(659,572)"/>
<path d="M0 0 C3.8063457 0.67170806 7.35206816 1.72746564 11 3 C11 3.66 11 4.32 11 5 C12.32 5.66 13.64 6.32 15 7 C13.359375 8.203125 13.359375 8.203125 11 9 C8.203125 7.734375 8.203125 7.734375 5.25 5.75 C4.26515625 5.10546875 3.2803125 4.4609375 2.265625 3.796875 C1.51796875 3.20390625 0.7703125 2.6109375 0 2 C0 1.34 0 0.68 0 0 Z " fill="#C5E574" transform="translate(424,319)"/>
<path d="M0 0 C0.33 0.66 0.66 1.32 1 2 C1.928125 2.4640625 1.928125 2.4640625 2.875 2.9375 C7.38890674 5.19445337 8.90246789 8.50528833 11 13 C7.88349604 11.49946106 4.86850702 9.93818042 2 8 C1.67 7.01 1.34 6.02 1 5 C-1.00016466 3.79117904 -1.00016466 3.79117904 -3 3 C-2.67 2.34 -2.34 1.68 -2 1 C-1.34 1.33 -0.68 1.66 0 2 C0 1.34 0 0.68 0 0 Z " fill="#9A9E9E" transform="translate(531,351)"/>
<path d="M0 0 C4.26205106 0.47356123 6.28693793 2.84698192 9 6 C9.8125 8.3125 9.8125 8.3125 10 10 C7.0625 9.1875 7.0625 9.1875 4 8 C3.67 7.01 3.34 6.02 3 5 C2.484375 4.484375 1.96875 3.96875 1.4375 3.4375 C0.963125 2.963125 0.48875 2.48875 0 2 C0 1.34 0 0.68 0 0 Z " fill="#ABB58F" transform="translate(521,343)"/>
<path d="M0 0 C1.8125 0.1875 1.8125 0.1875 4 1 C6.62334906 4.37287736 7.36372697 6.75651873 7 11 C4.83125748 10.49396008 3.00032373 10.00016187 1 9 C1.020625 8.071875 1.04125 7.14375 1.0625 6.1875 C1.15769604 2.97713989 1.15769604 2.97713989 0 0 Z " fill="#BABC84" transform="translate(738,770)"/>
<path d="M0 0 C1.00016187 2.00032373 1.49396008 3.83125748 2 6 C4.97 6.495 4.97 6.495 8 7 C7.01 7.495 7.01 7.495 6 8 C6 8.66 6 9.32 6 10 C5.34 10 4.68 10 4 10 C3.67 11.32 3.34 12.64 3 14 C3 12.02 3 10.04 3 8 C1.35 8.66 -0.3 9.32 -2 10 C-2.33 7.03 -2.66 4.06 -3 1 C-2.01 0.67 -1.02 0.34 0 0 Z " fill="#3048F4" transform="translate(726,694)"/>
<path d="M0 0 C4.4571874 0.26218749 6.51522698 0.57711289 9.9375 3.5625 C10.618125 4.366875 11.29875 5.17125 12 6 C11.34 6 10.68 6 10 6 C10.33 6.99 10.66 7.98 11 9 C10.01 8.67 9.02 8.34 8 8 C8 7.34 8 6.68 8 6 C7.236875 5.7525 6.47375 5.505 5.6875 5.25 C2.7635955 3.89004442 1.69995644 2.68414174 0 0 Z " fill="#C2D879" transform="translate(483,316)"/>
<path d="M0 0 C2.625 -0.1875 2.625 -0.1875 5 0 C5.125 2.375 5.125 2.375 5 5 C4.34 5.66 3.68 6.32 3 7 C0.375 6.625 0.375 6.625 -2 6 C-2 3 -2 3 0 0 Z " fill="#B7CA83" transform="translate(411,314)"/>
<path d="M0 0 C1.32 0 2.64 0 4 0 C4 0.66 4 1.32 4 2 C7.96 2.33 11.92 2.66 16 3 C16 3.99 16 4.98 16 6 C14.02 5.34 12.04 4.68 10 4 C9.67 4.66 9.34 5.32 9 6 C7.329375 5.4740625 7.329375 5.4740625 5.625 4.9375 C2.19735524 3.62760669 2.19735524 3.62760669 0 5 C-0.33 4.01 -0.66 3.02 -1 2 C-0.67 1.34 -0.34 0.68 0 0 Z " fill="#8692AE" transform="translate(440,286)"/>
<path d="M0 0 C0.66 0 1.32 0 2 0 C2.64757625 1.43671568 3.29299453 2.87440416 3.9375 4.3125 C4.29714844 5.11300781 4.65679687 5.91351562 5.02734375 6.73828125 C6 9 6 9 7 12 C5.35 12 3.7 12 2 12 C1.34 8.04 0.68 4.08 0 0 Z " fill="#A6AE93" transform="translate(376,682)"/>
<path d="M0 0 C0.66 0 1.32 0 2 0 C2 7.92 2 15.84 2 24 C1.67 24 1.34 24 1 24 C1 18.72 1 13.44 1 8 C0.34 8 -0.32 8 -1 8 C-0.67 5.36 -0.34 2.72 0 0 Z " fill="#B0AE8D" transform="translate(379,651)"/>
<path d="M0 0 C0 0.66 0 1.32 0 2 C0.66 2 1.32 2 2 2 C2.33 3.32 2.66 4.64 3 6 C1.63875 5.9690625 1.63875 5.9690625 0.25 5.9375 C-2.42672588 5.9889755 -4.46988052 6.2215017 -7 7 C-3.86206897 0 -3.86206897 0 0 0 Z " fill="#2F46F5" transform="translate(620,509)"/>
<path d="M0 0 C0.66 0 1.32 0 2 0 C3.78409802 3.06246747 4.22880021 5.22079273 4.125 8.75 C4.10695313 9.54921875 4.08890625 10.3484375 4.0703125 11.171875 C4.03550781 12.07679688 4.03550781 12.07679688 4 13 C3.01 13.495 3.01 13.495 2 14 C-0.29612756 4.58997722 -0.29612756 4.58997722 0 0 Z " fill="#BAC282" transform="translate(376,521)"/>
<path d="M0 0 C1.31611677 0.95336021 2.62778961 1.91285774 3.9375 2.875 C4.66839844 3.40867187 5.39929688 3.94234375 6.15234375 4.4921875 C8 6 8 6 9 8 C4.18569279 8.56638908 1.79692186 6.82561627 -2 4 C-1.34 2.68 -0.68 1.36 0 0 Z " fill="#C1D879" transform="translate(511,335)"/>
<path d="M0 0 C0.33 0.66 0.66 1.32 1 2 C2.65 1.34 4.3 0.68 6 0 C5.67 1.98 5.34 3.96 5 6 C3.35 5.67 1.7 5.34 0 5 C0 4.34 0 3.68 0 3 C-1.98 3.99 -1.98 3.99 -4 5 C-4 3.68 -4 2.36 -4 1 C-2.68 0.67 -1.36 0.34 0 0 Z " fill="#4B5EDE" transform="translate(434,297)"/>
<path d="M0 0 C4.64303232 2.06356992 6.23218132 4.69691502 8.3984375 9.0625 C9 11 9 11 8 14 C7.34 13.67 6.68 13.34 6 13 C5.5 11 5.5 11 5 9 C3.17120944 5.33466399 3.17120944 5.33466399 0 3 C0 2.01 0 1.02 0 0 Z " fill="#3047F4" transform="translate(718,671)"/>
<path d="M0 0 C2 1.5625 2 1.5625 4 4 C4.25 7.75 4.25 7.75 4 11 C1.69 11 -0.62 11 -3 11 C-2.67 10.34 -2.34 9.68 -2 9 C-0.68 8.67 0.64 8.34 2 8 C1.34 5.36 0.68 2.72 0 0 Z " fill="#8D93A9" transform="translate(683,628)"/>
<path d="M0 0 C-0.25 3.375 -0.25 3.375 -1 7 C-3.0625 8.4375 -3.0625 8.4375 -5 9 C-5.6875 6.75 -5.6875 6.75 -6 4 C-3.83783784 0 -3.83783784 0 0 0 Z " fill="#C3D07A" transform="translate(376,561)"/>
<path d="M0 0 C0.66 0.66 1.32 1.32 2 2 C0.68 5.63 -0.64 9.26 -2 13 C-3.09682402 9.70952793 -3.28157309 7.44927034 -3 4 C-1.5 1.625 -1.5 1.625 0 0 Z " fill="#3B50EB" transform="translate(740,752)"/>
<path d="M0 0 C0.99 0 1.98 0 3 0 C4.32 2.97 5.64 5.94 7 9 C6.34 9.66 5.68 10.32 5 11 C2.77174356 8.77174356 2.30760631 7.34238372 1.375 4.375 C1.11460937 3.55773437 0.85421875 2.74046875 0.5859375 1.8984375 C0.39257812 1.27195312 0.19921875 0.64546875 0 0 Z " fill="#3149F3" transform="translate(651,533)"/>
<path d="M0 0 C1.50539661 0.94983358 3.00420347 1.91011891 4.5 2.875 C5.75296875 3.67550781 5.75296875 3.67550781 7.03125 4.4921875 C7.6809375 4.98976563 8.330625 5.48734375 9 6 C9 6.66 9 7.32 9 8 C5.12793601 7.42636089 2.81534937 5.65894107 0 3 C0 2.01 0 1.02 0 0 Z " fill="#C8DA74" transform="translate(393,419)"/>
<path d="M0 0 C1.32 0 2.64 0 4 0 C4.66 1.98 5.32 3.96 6 6 C4.68 5.67 3.36 5.34 2 5 C2 5.99 2 6.98 2 8 C1.34 7.67 0.68 7.34 0 7 C0 4.69 0 2.38 0 0 Z " fill="#C3D279" transform="translate(554,375)"/>
<path d="M0 0 C2.40072955 2.88087546 4.47291037 5.56404834 6 9 C5.01 9 4.02 9 3 9 C0.75 6.75 0.75 6.75 -1 4 C-0.75 1.6875 -0.75 1.6875 0 0 Z " fill="#C3D679" transform="translate(578,419)"/>
<path d="M0 0 C0.66 1.32 1.32 2.64 2 4 C1.34 4 0.68 4 0 4 C0 6.64 0 9.28 0 12 C-2.82328089 9.17671911 -2.79396942 6.91458093 -3 3 C-1.5625 1.0625 -1.5625 1.0625 0 0 Z " fill="#BEC080" transform="translate(385,748)"/>
<path d="M0 0 C3.8063457 0.67170806 7.35206816 1.72746564 11 3 C10.67 3.66 10.34 4.32 10 5 C8.51793505 4.745504 7.03931385 4.47088238 5.5625 4.1875 C4.73878906 4.03667969 3.91507812 3.88585937 3.06640625 3.73046875 C2.38449219 3.48941406 1.70257813 3.24835938 1 3 C0.67 2.01 0.34 1.02 0 0 Z " fill="#C2D37A" transform="translate(424,319)"/>
<path d="M0 0 C0.33 0.99 0.66 1.98 1 3 C1.66 3 2.32 3 3 3 C2.34 4.32 1.68 5.64 1 7 C0.01 7 -0.98 7 -2 7 C-2.125 4.625 -2.125 4.625 -2 2 C-1.34 1.34 -0.68 0.68 0 0 Z " fill="#C7F46F" transform="translate(371,556)"/>
<path d="M0 0 C2.49361571 1.20381448 4.68143083 2.45428722 7 4 C7 4.66 7 5.32 7 6 C2.25 5.25 2.25 5.25 0 3 C0 2.01 0 1.02 0 0 Z " fill="#CCDE71" transform="translate(549,368)"/>
<path d="M0 0 C1 3 1 3 0.375 5 C0.25125 5.66 0.1275 6.32 0 7 C1.35444301 8.77190909 1.35444301 8.77190909 3 10 C0 10 0 10 -1.8125 8.3125 C-3 6 -3 6 -2.25 3.3125 C-1 1 -1 1 0 0 Z " fill="#4558E3" transform="translate(429,302)"/>
<path d="M0 0 C2.10921555 1.90509792 3.75310292 3.45682641 4.9375 6.0625 C4.958125 6.701875 4.97875 7.34125 5 8 C4.01 8.99 3.02 9.98 2 11 C1.34 7.37 0.68 3.74 0 0 Z " fill="#B8BD85" transform="translate(621,476)"/>
<path d="M0 0 C1.17539996 0.92652701 2.34010577 1.86663387 3.5 2.8125 C4.1496875 3.33457031 4.799375 3.85664063 5.46875 4.39453125 C7 6 7 6 7 9 C5.82460004 8.07347299 4.65989423 7.13336613 3.5 6.1875 C2.52546875 5.40439453 2.52546875 5.40439453 1.53125 4.60546875 C0 3 0 3 0 0 Z " fill="#D3DD6D" transform="translate(539,358)"/>
<path d="M0 0 C1.65 1.65 3.3 3.3 5 5 C4.01 5.66 3.02 6.32 2 7 C1.01 6.01 0.02 5.02 -1 4 C-1.33 4.66 -1.66 5.32 -2 6 C-1.125 1.125 -1.125 1.125 0 0 Z " fill="#2B43F8" transform="translate(399,826)"/>
<path d="M0 0 C0.33 0.66 0.66 1.32 1 2 C0.01 2.495 0.01 2.495 -1 3 C-1 3.99 -1 4.98 -1 6 C-1.99 6.33 -2.98 6.66 -4 7 C-4 5.02 -4 3.04 -4 1 C-2.68 0.67 -1.36 0.34 0 0 Z " fill="#BFC67F" transform="translate(463,338)"/>
<path d="M0 0 C0.99 0 1.98 0 3 0 C5.35723489 2.53184488 6 3.47190093 6 7 C3 6 3 6 1.3125 2.9375 C0.879375 1.968125 0.44625 0.99875 0 0 Z " fill="#C5E275" transform="translate(525,346)"/>
<path d="M0 0 C0.33 0 0.66 0 1 0 C1 3.63 1 7.26 1 11 C-2 7 -2 7 -1.75 4.375 C-1 2 -1 2 0 0 Z " fill="#4359FF" transform="translate(292,200)"/>
<path d="M0 0 C0.99 0.33 1.98 0.66 3 1 C3.33 3.64 3.66 6.28 4 9 C3.01 8.67 2.02 8.34 1 8 C1.020625 7.05125 1.04125 6.1025 1.0625 5.125 C1.22551826 2.09333717 1.22551826 2.09333717 0 0 Z " fill="#485AE1" transform="translate(738,771)"/>
<path d="M0 0 C0.66 0 1.32 0 2 0 C1.01 2.97 0.02 5.94 -1 9 C-1.92131287 5.3147485 -2.15237495 4.34188735 -1 1 C-0.67 0.67 -0.34 0.34 0 0 Z " fill="#C1D47B" transform="translate(642,514)"/>
<path d="M0 0 C0.99 0 1.98 0 3 0 C3 1.65 3 3.3 3 5 C2.01 5.33 1.02 5.66 0 6 C0 4.02 0 2.04 0 0 Z " fill="#B9D080" transform="translate(373,317)"/>
<path d="M0 0 C0.66 0 1.32 0 2 0 C2 1.65 2 3.3 2 5 C0.68 5.33 -0.64 5.66 -2 6 C-1.34 4.02 -0.68 2.04 0 0 Z " fill="#C3D37A" transform="translate(375,305)"/>
<path d="M0 0 C2.97 0.33 5.94 0.66 9 1 C9 1.99 9 2.98 9 4 C7.02 3.34 5.04 2.68 3 2 C2.67 2.66 2.34 3.32 2 4 C1.34 2.68 0.68 1.36 0 0 Z " fill="#3A50EB" transform="translate(447,288)"/>
</svg>
